<?xml version="1.0" standalone="no"?>
<!DOCTYPE svg PUBLIC "-//W3C//DTD SVG 20010904//EN"
 "http://www.w3.org/TR/2001/REC-SVG-20010904/DTD/svg10.dtd">
<svg version="1.0" xmlns="http://www.w3.org/2000/svg"
 width="275.000000pt" height="183.000000pt" viewBox="0 0 275.000000 183.000000"
 preserveAspectRatio="xMidYMid meet">

<g transform="translate(0.000000,183.000000) scale(0.100000,-0.100000)"
fill="#000000" stroke="none">
<path d="M975 1681 c-33 -10 -101 -36 -152 -59 -127 -57 -206 -79 -368 -102
-95 -14 -148 -26 -165 -39 -36 -26 -56 -90 -84 -268 -14 -87 -31 -171 -39
-188 -9 -16 -18 -55 -22 -85 -3 -30 -12 -95 -20 -145 -18 -123 -29 -503 -15
-555 14 -53 36 -65 150 -84 170 -29 382 -36 1095 -36 663 0 706 1 807 20 209
40 344 98 436 186 51 49 52 51 52 110 0 38 -6 68 -16 82 -8 12 -21 43 -29 70
-16 52 -62 103 -110 123 -17 7 -93 13 -180 14 -150 3 -287 24 -366 58 -19 8
-100 55 -182 106 -106 65 -157 91 -180 91 -22 0 -61 19 -124 59 -110 72 -142
114 -153 208 -5 35 -13 70 -20 78 -6 7 -15 43 -21 79 -16 119 -74 236 -135
277 -35 23 -80 23 -159 0z m138 -88 c39 -41 66 -112 77 -200 6 -44 19 -97 30
-118 l20 -39 -71 -73 c-67 -69 -82 -100 -52 -110 7 -3 37 18 66 46 30 28 56
51 60 51 3 0 17 -21 32 -47 l26 -47 -23 -23 c-22 -21 -29 -22 -106 -16 -98 7
-102 12 -102 118 l0 64 56 31 c54 32 55 33 52 74 -3 39 -4 41 -37 41 -47 0
-50 21 -5 35 36 12 36 13 32 61 -6 59 -28 95 -73 116 -32 15 -39 15 -122 -6
-103 -26 -284 -96 -510 -197 -182 -81 -181 -81 -147 19 18 53 10 50 169 72
146 21 238 47 365 102 186 82 222 88 263 46z m-40 -82 c27 -11 58 -72 39 -79
-6 -2 -22 -12 -36 -23 -42 -33 -32 -90 18 -117 17 -8 -7 -23 -159 -97 -190
-93 -249 -136 -280 -205 -17 -37 -21 -40 -59 -40 -86 1 -336 70 -336 93 0 7 7
49 16 94 l17 82 56 27 c193 92 554 238 641 259 30 7 56 14 57 14 1 1 13 -3 26
-8z m-53 -385 l0 -43 -105 -46 c-123 -54 -203 -82 -212 -73 -4 3 7 23 24 43
21 26 68 58 149 100 65 35 125 63 132 63 8 0 12 -15 12 -44z m28 -127 c27 -31
32 -32 128 -38 108 -7 116 -10 211 -87 28 -23 84 -61 124 -84 l71 -42 -4 -117
c-4 -88 -10 -130 -28 -175 l-23 -59 -196 6 c-206 7 -497 25 -518 32 -7 2 -40
59 -74 127 -33 68 -71 134 -83 147 -20 23 -20 24 -1 17 181 -67 414 -137 487
-146 127 -15 210 9 224 66 18 73 -27 156 -118 215 -72 46 -81 48 -68 13 18
-45 12 -106 -12 -131 -40 -42 -89 -34 -524 92 -474 138 -430 123 -417 136 8 8
39 2 105 -20 241 -77 401 -66 616 43 37 19 68 35 70 35 1 1 15 -13 30 -30z
m365 -21 c22 -16 25 -23 16 -34 -17 -21 -30 -17 -74 21 -32 28 -37 37 -26 44
16 10 35 3 84 -31z m97 -94 l0 -35 -31 22 -32 22 23 19 c29 23 40 15 40 -28z
m119 -5 l34 -21 -30 -30 c-26 -26 -33 -28 -52 -19 -16 9 -21 21 -21 51 0 47
16 52 69 19z m-1253 -90 c251 -103 235 -92 301 -224 32 -63 55 -116 52 -119
-4 -4 -387 36 -469 50 -74 12 -70 6 -70 109 0 101 18 245 30 245 4 0 74 -28
156 -61z m1368 20 c41 -24 43 -30 18 -53 -18 -15 -22 -15 -58 0 -21 9 -41 18
-43 20 -4 4 38 54 45 54 2 0 19 -9 38 -21z m149 -87 c32 -16 47 -29 47 -42 0
-11 -2 -20 -4 -20 -6 0 -130 52 -136 58 -6 5 32 33 40 29 3 -2 26 -13 53 -25z
m-119 -52 l122 -51 -33 -67 c-18 -37 -35 -86 -39 -109 l-6 -43 -115 0 c-105 0
-115 2 -110 18 26 81 38 140 43 215 4 48 9 87 11 87 3 0 59 -23 127 -50z m309
-5 c43 -8 127 -15 185 -15 138 0 125 -16 -29 -34 -111 -13 -155 -26 -211 -63
-40 -25 -49 -10 -42 65 4 34 10 62 13 62 3 0 41 -7 84 -15z m420 -53 c8 -9 20
-29 26 -44 13 -35 -3 -47 -101 -77 -126 -38 -539 -103 -555 -87 -7 6 24 106
42 136 8 14 14 19 15 11 0 -8 10 -25 22 -38 30 -32 73 -29 127 7 24 17 49 30
55 30 63 1 236 34 283 53 73 31 67 30 86 9z m67 -143 c0 -29 -175 -79 -379
-109 -365 -52 -816 -50 -1431 6 -198 18 -561 62 -568 69 -16 16 27 14 215 -9
467 -57 785 -78 1188 -78 404 -1 650 28 860 101 90 31 115 36 115 20z m-34
-98 c-28 -31 -165 -98 -246 -121 -174 -48 -211 -50 -945 -50 -846 1 -1132 15
-1154 59 -12 23 -23 121 -14 121 4 0 95 -11 201 -25 487 -62 953 -91 1332 -82
357 9 586 37 751 91 92 30 96 30 75 7z"/>
<path d="M797 1303 l-39 -24 -5 21 c-4 13 -11 19 -20 16 -8 -4 -33 -9 -56 -12
-66 -9 -95 -24 -118 -60 -11 -19 -30 -41 -42 -50 -21 -14 -21 -16 -4 -28 16
-13 14 -16 -25 -40 l-43 -27 80 5 c103 6 160 27 213 79 42 41 108 134 101 141
-2 2 -21 -7 -42 -21z"/>
</g>
</svg>
